Simulation
nRows=48
nColumns=15
endheader
time  TH_x TH_y TH_z SC_y  SC_z  SC_x  AC_y  AC_z  AC_x  GH_y  GH_z  GH_yy  EL_x  PS_y
5.745  0.000000  0.000000  0.000000  -54.13355967172368  19.888055934079542  18.871105197832016  46.085329187174  10.218335403646915  13.394922418160915  38.06285554339547  55.123582851058835  -47.251588996838116  18.579305041147272  120.000000
5.80245  0.000000  0.000000  0.000000  -52.7831571018777  19.211024274829953  16.353857707984545  45.44572365153009  9.9402875475086  12.211546959159485  39.491559968678125  54.260404802609045  -47.975560680801905  18.87237593908111  120.000000
5.8599  0.000000  0.000000  0.000000  -51.174328175902524  18.3490540103923  13.30387798037798  44.700715340646575  9.5756126234521  11.005127315696212  41.02435099964989  53.003472240983356  -48.504506353611205  19.266012728850356  120.000000
5.91735  0.000000  0.000000  0.000000  -49.35726790439175  17.260827358892012  9.849972011547887  43.862830495336304  9.168720534541157  9.867849676235599  42.50809812551315  51.3178276531345  -48.74410685939531  19.670532892951044  120.000000
5.9748  0.000000  0.000000  0.000000  -47.38295992109913  15.926056478882336  6.15241352538242  42.93975009391217  8.804178711499189  8.877262282948605  43.82480354692647  49.17206690512016  -48.65428461825064  19.977432097355642  120.000000
6.03225  0.000000  0.000000  0.000000  -45.303280200587274  14.355535656785724  2.3872999003192374  41.957288851344536  8.5883038346741  8.08850724794006  44.90388185444797  46.557278425391154  -48.26125373548642  20.092272260255797  120.000000
6.089700000000001  0.000000  0.000000  0.000000  -43.17496086830973  12.589878893167743  -1.2719217842410222  40.96782124835497  8.621381959161457  7.536275861520181  45.731399513232525  43.50472013777542  -47.65145229954923  19.962312331241044  120.000000
6.14715  0.000000  0.000000  0.000000  -41.067747255424116  10.697024121001647  -4.676132671645283  40.04467821234741  8.97095530929128  7.235695608515955  46.356563338864824  40.099471957934114  -46.9545399657021  19.586111260077022  120.000000
6.2046  0.000000  0.000000  0.000000  -39.06897292928623  8.771541614497803  -7.722635005452724  39.26821542578544  9.653860580745368  7.179861582720362  46.89927276860023  36.48143473240434  -46.3284980618254  19.0019820967533  120.000000
6.26205  0.000000  0.000000  0.000000  -37.275481405754  6.914882290686107  -10.362227744259307  38.69800483928994  10.630564209549398  7.346508158555537  47.54841965022697  32.823853770126156  -45.946869745388646  18.271063153338783  120.000000
6.3195  0.000000  0.000000  0.000000  -35.77619647971383  5.220876581703974  -12.58914288258475  38.35685045181083  11.816828754910825  7.705609613410849  48.545408634758296  29.299397365258944  -45.98582710042455  17.46842137548741  120.000000
6.37695  0.000000  0.000000  0.000000  -34.63081032672079  3.7701963649841104  -14.425307268842591  38.23671883346323  13.110021167869583  8.217097129439027  50.14586051062314  26.047740488866705  -46.604525155271915  16.678834162213708  120.000000
6.4344  0.000000  0.000000  0.000000  -33.85617166467784  2.613792479014731  -15.902389521461068  38.3029089347042  14.412877411043704  8.836390817435221  52.561080558091284  23.15381800343704  -47.91596741729468  15.986931037562977  120.000000
6.49185  0.000000  0.000000  0.000000  -33.42652538261246  1.77007017229745  -17.05139848639761  38.507428565697516  15.647140727518275  9.52141895486731  55.91391360888766  20.652903758381218  -49.972192765844966  15.465089853499725  120.000000
6.549300000000001  0.000000  0.000000  0.000000  -33.28451634789303  1.230470634190298  -17.90222634631997  38.803525743302494  16.7595075364425  10.231434019323663  60.215919536570645  18.549854519923617  -52.7627796276021  15.16144105858465  120.000000
6.60675  0.000000  0.000000  0.000000  -33.36104282563195  0.9617606227970973  -18.485333244989114  39.145815355449855  17.719704724567666  10.92907741928385  65.35551939947575  16.832877812220016  -56.21088901208365  15.091297117392658  120.000000
6.6642  0.000000  0.000000  0.000000  -33.58636593504111  0.9126081954421356  -18.83452411837586  39.49070406280972  18.517079382651136  11.579467955875357  71.1003303046641  15.475639670548846  -60.1644176368979  15.239359530369446  120.000000
6.72165  0.000000  0.000000  0.000000  -33.893946757091264  1.0225098834086612  -18.98831635754155  39.79940010613701  19.156633859165268  12.14888155321524  77.13094613684456  14.430745112738837  -64.40484913279943  15.566621271000217  120.000000
6.7791  0.000000  0.000000  0.000000  -34.22926129014978  1.2320884026285932  -18.988697602559995  40.046705036383756  19.65181487895512  12.608788961454492  83.11468000476408  13.636261107827494  -68.69286520341213  16.014948593507416  120.000000
6.83655  0.000000  0.000000  0.000000  -34.54809562611543  1.487324250014786  -18.87562704607356  40.22630924757786  20.015678182588896  12.941677316364775  88.78317079077473  13.029158891795449  -72.82107220210766  16.50804296761371  120.000000
6.894  0.000000  0.000000  0.000000  -34.8222092396877  1.7423038997469333  -18.680909128948002  40.34585499676711  20.255888581803482  13.144512513293996  93.97039332541969  12.556856240818615  -76.64902673825108  16.959154953330643  120.000000
6.95145  0.000000  0.000000  0.000000  -35.03570111201309  1.9673567512592176  -18.42841902393508  40.425878483135826  20.38092857531703  13.222342901059038  98.60387272486878  12.18015276836328  -80.10701422591795  17.28978938967003  120.000000
7.008900000000001  0.000000  0.000000  0.000000  -35.181032201021964  2.1480501263733274  -18.13436929382634  40.489190697089136  20.404175646054775  13.186221093329445  102.67792445821222  11.86877279102168  -83.18455475427956  17.454463094820895  120.000000
7.06635  0.000000  0.000000  0.000000  -35.26618298477528  2.279543162338732  -17.80688217714534  40.547841437535546  20.341871140058615  13.054606384640808  106.2272616440923  11.59920617507195  -85.9162630750476  17.46209421371418  120.000000
7.1238  0.000000  0.000000  0.000000  -35.31037093624041  2.363787843643262  -17.448561105748496  40.60459885400221  20.213282125626232  12.847157113340597  109.3022906050386  11.35397149427727  -88.36085013452202  17.37291502325492  120.000000
7.18125  0.000000  0.000000  0.000000  -35.33687520771378  2.409028840865208  -17.059747394853666  40.66186657708826  20.0403357319866  12.578468162579043  111.94314922893685  11.123498386747023  -90.57059937791081  17.2716138619135  120.000000
7.2387  0.000000  0.000000  0.000000  -35.364459538636986  2.429358977806542  -16.6401909317278  40.7254742855867  19.84232984941996  12.260355151519324  114.17711962899945  10.90384870057595  -92.57720882423538  17.23288123257126  120.000000
7.29615  0.000000  0.000000  0.000000  -35.405052267375055  2.4365658159673522  -16.189270709317412  40.80022846239865  19.630026016916613  11.908010632232145  116.02871793815505  10.690616003236629  -94.39239003446276  17.293570373082403  120.000000
7.3536  0.000000  0.000000  0.000000  -35.46032084850858  2.437183768112623  -15.707623307080098  40.889526268605934  19.405732389945683  11.539504376013586  117.53370010187301  10.475924726256148  -96.01979918975985  17.44709427483401  120.000000
7.41105  0.000000  0.000000  0.000000  -35.522838845798034  2.4364730262577727  -15.199144081868138  40.99883622855061  19.167960013623578  11.169866329982357  118.7339005966035  10.25116598556567  -97.45785142431058  17.660045612068675  120.000000
7.468500000000001  0.000000  0.000000  0.000000  -35.58079246787954  2.440322566918781  -14.671436982325835  41.1348093135062  18.915171259349954  10.807371453936899  119.67102472663933  10.009014119878431  -98.70492947387636  17.894700648612133  120.000000
7.52595  0.000000  0.000000  0.000000  -35.62474411183377  2.452836925598343  -14.133958708101611  41.299314027662  18.64574604097217  10.455806175160781  120.39047532232604  9.744137322484429  -99.77212086206748  18.124792890729225  120.000000
7.5834  0.000000  0.000000  0.000000  -35.6523392952194  2.4742741961517845  -13.59566612974936  41.48696702037153  18.35783784819859  10.11732373124231  120.94059464797728  9.45501726623242  -100.68660057418205  18.341186619996538  120.000000
7.64085  0.000000  0.000000  0.000000  -35.66692995005876  2.5030480187332222  -13.063738744227798  41.68865264137625  18.050424268389452  9.792964671225466  121.36962090452681  9.145086798015942  -101.48651841106712  18.547440907025887  120.000000
7.6983  0.000000  0.000000  0.000000  -35.673903948290324  2.5369901780954836  -12.543042087350118  41.89593527538993  17.72450503671615  9.482115087356373  121.72325490056402  8.822158533107334  -102.21403138869816  18.751397282251613  120.000000
7.75575  0.000000  0.000000  0.000000  -35.678271338956314  2.5730309707474133  -12.03584793258404  42.10312173705419  17.383219700271173  9.18262004630054  122.04275698846324  8.496644713236792  -102.90919863892891  18.95814554451268  120.000000
7.8132  0.000000  0.000000  0.000000  -35.68348936576458  2.608167735857873  -11.541878279959692  42.30704033215312  17.030896892333875  8.89162823336043  122.36718610767126  8.17955523729406  -103.60880066522643  19.167475323600172  120.000000
7.87065  0.000000  0.000000  0.000000  -35.6919598448208  2.639525125802988  -11.058889821426785  42.50665709611335  16.672646552431214  8.60520190331299  122.72608704054375  7.881073634633856  -104.33745616253397  19.375259849855787  120.000000
7.928100000000001  0.000000  0.000000  0.000000  -35.706783206411465  2.6642313798034474  -10.582993694326753  42.700076255139905  16.313120611240613  8.318972537419464  123.13571663502404  7.608518430865684  -105.10315890867155  19.577578914079574  120.000000
7.98555  0.000000  0.000000  0.000000  -35.731861806398534  2.680323316926542  -10.109422177197176  42.88194306362055  15.955759133663276  8.028094765865715  123.60199285891836  7.363541189080887  -105.90009331182848  19.775516467077832  120.000000
8.043  0.000000  0.000000  0.000000  -35.76929835331508  2.6877018113105144  -9.634394630562241  43.045498931621495  15.603706391099315  7.725117761353537  124.11617573043061  7.141489471091516  -106.70680751248184  19.978026148712754  120.000000
8.10045  0.000000  0.000000  0.000000  -35.81645222383903  2.6880554196926236  -9.156292574405986  43.182294759230636  15.257969025543089  7.402821490056883  124.66328065575212  6.932037374528926  -107.49896294926027  20.199431280400105  120.000000
8.1579  0.000000  0.000000  0.000000  -35.86492903700406  2.68316689753206  -8.677271754168535  43.278485224100635  14.916003932750863  7.058997857132648  125.23240840471408  6.7189110221761865  -108.26549469978261  20.45003267031806  120.000000
8.21535  0.000000  0.000000  0.000000  -35.900746572235505  2.6767927999175027  -8.207651835584116  43.31841513582857  14.575125001238918  6.693362655289134  125.7858690966061  6.483330001246798  -108.98364923158117  20.723404971409717  120.000000
8.2728  0.000000  0.000000  0.000000  -35.90604372548431  2.6749957137170854  -7.76824189492265  43.28704856301561  14.23454188467108  6.305287581505343  126.22516761768053  6.209738250794597  -109.58621492430821  20.987032262412363  120.000000
8.33025  0.000000  0.000000  0.000000  -35.86382581225475  2.6826979920175056  -7.387937889225429  43.16870975918584  13.894362571225383  5.898537772887371  126.35902628891782  5.892761048420412  -109.92267549190704  21.18685453761322  120.000000
8.3877  0.000000  0.000000  0.000000  -35.760003513074096  2.699537974265639  -7.099655076807236  42.95265744287468  13.557788846874848  5.482230106027101  125.84606423909949  5.54445055791634  -109.68495918567945  21.269532339535818  120.000000
8.44515  0.000000  0.000000  0.000000  -35.58224025503738  2.715246549731477  -6.93405533008278  42.63905260863256  13.233407364600994  5.068141829411728  124.14381905472462  5.198464339430951  -108.33676141784063  21.206959682763056  120.000000
